<mxfile host="app.diagrams.net" modified="2024-05-20T10:32:54.357Z" agent="Mozilla/5.0 (X11; Linux x86_64) AppleWebKit/537.36 (KHTML, like Gecko) Chrome/124.0.0.0 Safari/537.36" etag="NN23JwOjQYciKP2Chjcf" version="24.4.4" type="device">
  <diagram id="C5RBs43oDa-KdzZeNtuy" name="Page-1">
    <mxGraphModel dx="5736" dy="4313" grid="1" gridSize="10" guides="1" tooltips="1" connect="1" arrows="1" fold="1" page="1" pageScale="1" pageWidth="827" pageHeight="1169" math="0" shadow="0">
      <root>
        <mxCell id="WIyWlLk6GJQsqaUBKTNV-0" />
        <mxCell id="WIyWlLk6GJQsqaUBKTNV-1" parent="WIyWlLk6GJQsqaUBKTNV-0" />
        <UserObject label="&lt;pre&gt;                                                                                                                                                                                                                                                          &#xa;                                                                                                                                                                                                                                                          &#xa;                                                                                                                                                                                                                                                          &#xa;                                                                                                                                                                                                                                                          &#xa;                                                                                                                                                                                                                                                          &#xa;                                                                                                                                                                                                                                                          &#xa;                                                                                                                                                                                                                                                          &#xa;                                                                                                                                                                                                                    Prepare FEA Data                      &#xa;                                                                                                                                                                                                                                                          &#xa;                                                                                                                                                                                                                                                          &#xa;                                                                                                                                                                                                                                                          &#xa;                                                                                                                                                                                                                                                          &#xa;                                                                                                                                                                                    Discretize Members                                                    &#xa;                                                                                                                                                                                                                                                          &#xa;                                                                                                                                                                                                                                                          &#xa;                                                                                                                                                                                                                                                          &#xa;                                                                                                                                                                                                                                                          &#xa;                                                                    Setup Fictitious Rotation Constraints                                                                                                                                                 &#xa;                                                                                                                                                                                                                                                          &#xa;                                                                                                                                                                                                                                                          &#xa;                                                                                                                                                                                                                                                          &#xa;                                                                                                                                                                                                                                                          &#xa;                     Initialize Global Matrices and Vectors                                                                                                                                                                                               &#xa;                                                                                                                                                                                                                                                          &#xa;                                                                                                                                                                                                                                                          &#xa;                                                                                                                                                                                                                                                          &#xa;                                                                                                                                                                                                                                                          &#xa;                                                                                                                                                                                                                                                          &#xa;                                                                               Generate Global DoFs Numbering Matrix                                                                                                                                      &#xa;                                                                                                                                                                                                                                                          &#xa;                                                                                                                                                                                                                                                          &#xa;                                                                                                                                                                                                                                                          &#xa;                                                                                                                                                                                                                                                          &#xa;                                                 Assemble Global DoFs Numbering Matrix                                                                                                                                                                    &#xa;                                                                                                                                                                                                                                                          &#xa;                                                                                                                                                                                                                                                          &#xa;                                                                                                                                                                                                                                                          &#xa;                                                                                                                                                                                                                                                          &#xa;                                                                                                                   Assemble Global Stiffness Matrix                                                                                                       &#xa;                                                                                                                                                                                                                                                          &#xa;                                                                                                                                                                                                                                                          &#xa;                                                                                                                                                                                                                                                          &#xa;                                                                                                                                                                                                                                                          &#xa;                                                                                                                                              Process Each Load Case                                                                                      &#xa;                                                                                                                                                                                                                                                          &#xa;                                                                                                                                                                                                                                                          &#xa;                                                                                                                                                                                                                                                          &#xa;                                                                                                                                                                                                                                                          &#xa;                                                                                             Apply Prescribed Displacements                                                                                                                               &#xa;                                                                                                                                                                                                                                                          &#xa;                                                                                                                                                                                                                                                          &#xa;                                                                                                                                                                                                                                                          &#xa;                                                                                                                                                                                                                                                          &#xa;                                                                                                                                                                                                                                                          &#xa;                                                                                                                                                                                         Apply Nodal Forces                                               &#xa;                                                                                                                                                                                                                                                          &#xa;                                                                                                                                                                                                                                                          &#xa;                                                                                                                                                                                                                                                          &#xa;                                                                                                                                                                                                                                                          &#xa;                                                                                                                                                                                   Apply Member Forces                                                    &#xa;                                                                                                                                                                                                                                                          &#xa;                                                                                                                                                                                                                                                          &#xa;                                                                                                                                                                                                                                                          &#xa;                                                                                                                                                                                                                                                          &#xa;                                                                                                                                                                                                                      Solve Load Case                     &#xa;                                                                                                                                                                                                                                                          &#xa;                                                                                                                                                                                                                                                          &#xa;                                                                                                                                                                                                                                                          &#xa;                                                                                                                                                                                                                                                          &#xa;                                                                                                                                                                                                                                                          &#xa;                                                                                                                                                                          Save Displacements                                                              &#xa;                                                                                                                                                                                                                                                          &#xa;                                                                                                                                                                                                                                                          &#xa;                                                                                                                                                                                                                                                          &#xa;                                                                                                                                                                                                                                                          &#xa;                                                                                                                                                                                                                  Save Reactions                          &#xa;                                                                                                                                                                                                                                                          &#xa;                                                                                                                                                                                                                                                          &#xa;                                                                                                                                                                                                                                                          &#xa;                                                                                                                                                                                                                                                          &#xa;                                                                                                                                                                                      Save Internal Forces                                                &#xa;                                                                                                                                                                                                                                                          &#xa;                                                                                                                                                                                                                                                          &#xa;                                                                                                                                                                                                                                                          &#xa;                                                                                                                                                                                                                                                          &#xa;                                                                                                                                                                                                                                                          &#xa;                                                                                                   Save Internal Displacements                                                                                                                            &#xa;                                                                                                                                                                                                                                                          &#xa;                                                                                                                                                                                                                                                          &#xa;                                                                                                                                                                                                                                                          &#xa;                                                                                                                                                                                                                       More Load Cases?                   &#xa;                                                                                                                                                                                                                                                          &#xa;                                                                                                                                                                                                                                                          &#xa;                                                                                                                                                                                                                                                          &#xa;                                                                                                                                                                                                                                                          &#xa;                                                                                                           Process Each Load Combination                                                                                                                  &#xa;                                                                                                                                                                                                                                                          &#xa;                                                                                                                                                                                                                                                          &#xa;                                                                                                                                                                                                                                                          &#xa;                                                                                                                                                                                                                                                          &#xa;                                                                         Save Displacements Combination                                                                                                                                                   &#xa;                                                                                                                                                                                                                                                          &#xa;                                                                                                                                                                                                                                                          &#xa;                                                                                                                                                                                                                                                          &#xa;                                                                                                                                                                                                                                                          &#xa;                                                                                                                                                                                                                                                          &#xa;                                                                                                                                                             Save Reactions Combination                                                                   &#xa;                                                                                                                                                                                                                                                          &#xa;                                                                                                                                                                                                                                                          &#xa;                                                                                                                                                                                                                                                          &#xa;                                                                                                                                                                                                                                                          &#xa;                                                                                                                                                                                                                                                          &#xa;                                                            Save Internal Forces Combination                                                                                                                                                              &#xa;                                                                                                                                                                                                                                                          &#xa;                                                                                                                                                                                                                                                          &#xa;                                                                                                                                                                                                                                                          &#xa;                                                                                                                                                                                                                                                          &#xa;                                       Save Internal Displacements Combination                                                                                                                                                                            &#xa;                                                                                                                                                                                                                                                          &#xa;                                                                                                                                                                                                                                                          &#xa;                                                                                                                                                                                                                                                          &#xa;                                                                                                                                                                                                                                                          &#xa;                                                                                                                                                                            More Load Combinations?                                                       &#xa;                                                                                                                                                                                                                                                          &#xa;                                                                                                                                                                                                                                                          &#xa;                                                                                                                                                                                                                                                          &#xa;                                                                                                                                                                                                                                                          &#xa;                                                                                                                                                        Process Each Envelope                                                                             &#xa;                                                                                                                                                                                                                                                          &#xa;                                                                                                                                                                                                                                                          &#xa;                                                                                                                                                                                                                                                          &#xa;                                                                                                                                                                                                                                                          &#xa;                                                                                                              Save Envelope Internal Forces                                                                                                               &#xa;                                                                                                                                                                                                                                                          &#xa;                                                                                                                                                                                                                                                          &#xa;                                                                                                                                                                                                                                                          &#xa;                                                                                                                                                                                                                                                          &#xa;                                                                                                                                                                                                                                           More Envelopes?&#xa;                                                                                                                                                                                                                                                          &#xa;                                                                                                                                                                                                                                                          &#xa;                                                                                                                                                                                                                                                          &#xa;                                                                                                                                                              Analysis Successfully Finished                                                              &#xa;&lt;/pre&gt;" plantUmlData="{&quot;data&quot;:&quot;@startuml\nstart\n:Prepare FEA Data;\n:Discretize Members;\n:Setup Fictitious Rotation Constraints;\n:Initialize Global Matrices and Vectors;\n:Generate Global DoFs Numbering Matrix;\n:Assemble Global DoFs Numbering Matrix;\n:Assemble Global Stiffness Matrix;\n\nrepeat :Process Each Load Case;\n:Apply Prescribed Displacements;\n:Apply Nodal Forces;\n:Apply Member Forces;\n:Solve Load Case;\n:Save Displacements;\n:Save Reactions;\n:Save Internal Forces;\n:Save Internal Displacements;\nrepeat while (More Load Cases?);\n\nrepeat :Process Each Load Combination;\n:Save Displacements Combination;\n:Save Reactions Combination;\n:Save Internal Forces Combination;\n:Save Internal Displacements Combination;\nrepeat while (More Load Combinations?);\n\nrepeat :Process Each Envelope;\n:Save Envelope Internal Forces;\nrepeat while (More Envelopes?);\n\n:Analysis Successfully Finished;\nstop\n@enduml&quot;,&quot;format&quot;:&quot;txt&quot;}" id="Jmji6LMZUbCeMcq_-wpv-5">
          <mxCell style="text;html=1;align=left;verticalAlign=top;" parent="WIyWlLk6GJQsqaUBKTNV-1" vertex="1">
            <mxGeometry x="140" y="-690" width="1830" height="2080" as="geometry" />
          </mxCell>
        </UserObject>
      </root>
    </mxGraphModel>
  </diagram>
</mxfile>
